<svg id="Layer_1" data-name="Layer 1" xmlns="http://www.w3.org/2000/svg" viewBox="0 0 566 566"><defs><style>.cls-1{fill:#1c4559;}.cls-2{fill:#fff;}.cls-3{fill:#ccc;}</style></defs><title>NEEA-Level-1-color-logo</title><circle class="cls-1" cx="283" cy="283" r="283"/><path class="cls-2" d="M102.59,125.45a19.54,19.54,0,0,1,3.78,27.37l-6.88,9.09L68.34,138.32l6.88-9.09A19.54,19.54,0,0,1,102.59,125.45Zm-4.67,6.17a11.81,11.81,0,0,0-16.54,2.28l-2.21,2.92L98,151.08l2.21-2.92A11.81,11.81,0,0,0,97.92,131.62Z" transform="translate(-0.93 -0.85)"/><path class="cls-2" d="M148.17,109.21l-19.23,17L103.1,96.86,121.41,80.7l5.11,5.8L114,97.54l5.11,5.8,11.6-10.23,5.11,5.8-11.6,10.23,5.38,6.11,13.43-11.84Z" transform="translate(-0.93 -0.85)"/><path class="cls-2" d="M181.39,74.37a11.35,11.35,0,0,1-.39,12,19.19,19.19,0,0,1-15.07,8.7,10.87,10.87,0,0,1-9-3.54l5.11-6a3.44,3.44,0,0,0,3.42,1.85,11.64,11.64,0,0,0,9.16-5.29,3.45,3.45,0,0,0,.11-3.88,2.89,2.89,0,0,0-3.19-1.45l-13,1.82q-6.29.93-9.57-4.75a9.68,9.68,0,0,1,.43-11.05,15.27,15.27,0,0,1,5.18-4.87,15.58,15.58,0,0,1,6.85-2.08,9.93,9.93,0,0,1,7.46,2.44l-5,5.89a2.48,2.48,0,0,0-1.88-.62,8,8,0,0,0-3.56,1.06,7.79,7.79,0,0,0-2.62,2.43A2.6,2.6,0,0,0,155.6,70a2,2,0,0,0,2.25.94L171,69a10,10,0,0,1,6,1A10.72,10.72,0,0,1,181.39,74.37Z" transform="translate(-0.93 -0.85)"/><path class="cls-2" d="M210.93,75l-7.62,2.86L189.57,41.31l7.62-2.86Z" transform="translate(-0.93 -0.85)"/><path class="cls-2" d="M262.41,43.08a19.41,19.41,0,0,1-3.33,15.05,20.15,20.15,0,0,1-36.35-8A19.41,19.41,0,0,1,226.07,35a20.14,20.14,0,0,1,28.06-5l-4.41,6.31a12.09,12.09,0,0,0-9.3-2,12.42,12.42,0,0,0-10.07,14.38A12.42,12.42,0,0,0,244.73,58.8a11.79,11.79,0,0,0,9.22-7.21l-7,1.23-1.34-7.62,16.63-2.94Z" transform="translate(-0.93 -0.85)"/><path class="cls-2" d="M317.38,65.26L290.53,38.86,289,62.2l-7.72-.5,2.59-40.21,26.85,26.4,1.5-23.36L320,25Z" transform="translate(-0.93 -0.85)"/><path class="cls-2" d="M365.85,76.78l-8.24-2.44L356.8,69,341.51,64.5l-3.57,4L329.7,66.1l29.47-33.31ZM355.57,60.59L354,50.41l-6.81,7.69Z" transform="translate(-0.93 -0.85)"/><path class="cls-2" d="M421.76,70.5l-12.32-6.74-15,27.5-6.79-3.71,15-27.5-12.32-6.74L394,46.53l31.43,17.18Z" transform="translate(-0.93 -0.85)"/><path class="cls-2" d="M438.2,123.5l-19.52-16.63L444,77.12,462.61,93l-5,5.89L444.89,88l-5,5.89,11.78,10-5,5.89-11.77-10-5.28,6.2,13.63,11.61Z" transform="translate(-0.93 -0.85)"/><path class="cls-2" d="M484.73,148.07a19.54,19.54,0,0,1-27.43-3.31l-7-9L481,111.67l7,9A19.54,19.54,0,0,1,484.73,148.07ZM480,142a11.81,11.81,0,0,0,2-16.57l-2.26-2.88L461.12,137.1l2.26,2.88A11.81,11.81,0,0,0,480,142Z" transform="translate(-0.93 -0.85)"/><path class="cls-3" d="M41.64,287.82A242.47,242.47,0,0,0,284,526.3c1.36,0,2.73,0,4.1,0A242.65,242.65,0,0,0,497.52,168.59l-5,.86a237.67,237.67,0,1,1-416.43-.77l-3.21-4.12A241,241,0,0,0,41.64,287.82Z" transform="translate(-0.93 -0.85)"/><path class="cls-2" d="M293,488.15H278.57V422.62L293,416.54v71.6Z" transform="translate(-0.93 -0.85)"/><path class="cls-2" d="M165.57,231.22c0,1.84-1.27,2.53-2.82,1.55l-66.58-42.1c-1.55-1-2.82-.28-2.82,1.55V296.75a3.35,3.35,0,0,0,3.34,3.34H126.3a3.35,3.35,0,0,0,3.34-3.34V258.35c0-1.84,1.27-2.53,2.82-1.55L199,298.9c1.55,1,2.82.28,2.82-1.55V192.47a3.35,3.35,0,0,0-3.34-3.34H168.9a3.35,3.35,0,0,0-3.34,3.34v38.74Z" transform="translate(-0.93 -0.85)"/><path class="cls-2" d="M303.65,189.23a6.79,6.79,0,0,0-5.13,2.82l-10.29,16.18a2,2,0,0,1-3.59,0L274.3,192a6.81,6.81,0,0,0-5.13-2.81h-36.4c-1.84,0-2.53,1.27-1.54,2.81l31.86,49.81a5.7,5.7,0,0,1,0,5.62l-31.85,49.8c-1,1.55-.3,2.81,1.54,2.81h36.4a6.81,6.81,0,0,0,5.13-2.81l10.35-16.19a2,2,0,0,1,3.59,0l10.28,16.18a6.79,6.79,0,0,0,5.13,2.82h36.42c1.84,0,2.53-1.27,1.54-2.81l-31.85-49.8a5.7,5.7,0,0,1,0-5.62L341.61,192c1-1.55.3-2.81-1.54-2.81H303.65Z" transform="translate(-0.93 -0.85)"/><path class="cls-2" d="M370,189.23a3.35,3.35,0,0,0-3.34,3.34v29.61a3.35,3.35,0,0,0,3.34,3.34h26.74a3.35,3.35,0,0,1,3.34,3.34v67.9a3.35,3.35,0,0,0,3.34,3.34H433a3.35,3.35,0,0,0,3.34-3.34v-67.9a3.35,3.35,0,0,1,3.34-3.34h26.74a3.35,3.35,0,0,0,3.34-3.34V192.57a3.35,3.35,0,0,0-3.34-3.34H370Z" transform="translate(-0.93 -0.85)"/><path class="cls-2" d="M147.22,332l13-3.82v43.33h23L179.35,383H147.22V332Z" transform="translate(-0.93 -0.85)"/><path class="cls-2" d="M204.24,328.23H240v11.53H216.9v10.51h18.27v11.34H216.9v9.95h24.75L237.83,383H204.24V328.23Z" transform="translate(-0.93 -0.85)"/><path class="cls-2" d="M311.29,328.23L291.17,383h-11.3l-20.19-54.82h14l11.76,36.51h0.11l11.87-36.51h13.91Z" transform="translate(-0.93 -0.85)"/><path class="cls-2" d="M331.23,328.23H367v11.53H343.89v10.51h18.27v11.34H343.89v9.95h24.75L364.83,383H331.23V328.23Z" transform="translate(-0.93 -0.85)"/><path class="cls-2" d="M390.81,332l13-3.82v43.33h23L422.94,383H390.81V332Z" transform="translate(-0.93 -0.85)"/></svg>