<svg xmlns="http://www.w3.org/2000/svg" width="28" height="28" viewBox="0 0 28 28"><path fill="#444" d="M22.937 5.938q.438.438.75 1.188T24 8.5v18q0 .626-.438 1.063T22.5 28h-21q-.625 0-1.062-.437T0 26.5v-25Q0 .877.438.44T1.5 0h14q.625 0 1.375.314t1.188.75zM16 2.125V8h5.875q-.156-.453-.344-.64l-4.89-4.892q-.187-.187-.64-.344zM22 26V10h-6.5q-.625 0-1.062-.438T14 8.5V2H2v24h20zM3.64 12v1.672h1.095L7.297 24H9.78l2-7.578q.11-.313.157-.72.03-.25.03-.374h.064l.048.375q.016.047.055.313t.086.406l2 7.578h2.483l2.562-10.328h1.094V12h-4.69v1.672h1.407l-1.547 6.844q-.078.313-.11.72l-.03.327h-.063l-.047-.328q-.016-.078-.063-.328t-.078-.39L12.89 12h-1.782l-2.25 8.516q-.03.14-.07.383t-.055.335l-.063.328h-.063l-.03-.328q-.032-.406-.11-.72L6.92 13.673h1.406V12H3.638z"/></svg>