<svg xmlns="http://www.w3.org/2000/svg" width="28" height="28" viewBox="0 0 28 28"><path fill="#444" d="M22.937 5.938q.438.438.75 1.188T24 8.5v18q0 .626-.438 1.063T22.5 28h-21q-.625 0-1.062-.437T0 26.5v-25Q0 .877.438.44T1.5 0h14q.625 0 1.375.314t1.188.75zM16 2.125V8h5.875q-.156-.453-.344-.64l-4.89-4.892q-.187-.187-.64-.344zM22 26V10h-6.5q-.625 0-1.062-.438T14 8.5V2H2v24h20zm-8.03-9.266q.515.406 1.31.875.923-.11 1.83-.11 2.296 0 2.765.766.25.344.03.812 0 .016-.015.03l-.03.032v.016q-.095.594-1.11.594-.75 0-1.797-.313t-2.03-.828q-3.454.374-6.126 1.296Q6.407 24 5.017 24q-.235 0-.44-.11l-.374-.186q-.016-.016-.094-.078-.157-.156-.095-.562.14-.625.875-1.43t2.063-1.508q.22-.14.36.094.03.03.03.063.812-1.328 1.672-3.078 1.062-2.125 1.625-4.094-.375-1.28-.477-2.49t.102-1.993q.172-.625.656-.625h.345q.36 0 .547.234.28.328.14 1.062-.03.094-.062.125.016.047.016.125v.47q-.03 1.92-.22 3 .86 2.56 2.282 3.718zm-9 6.422q.81-.375 2.14-2.47-.797.626-1.367 1.314t-.773 1.156zM11.187 8.78q-.234.657-.03 2.064.015-.11.108-.688 0-.047.11-.672.015-.063.062-.125-.016-.017-.016-.032t-.008-.023-.008-.023q-.016-.344-.203-.562 0 .016-.016.03v.032zM9.25 19.11q2.11-.845 4.438-1.267-.03-.016-.203-.148t-.25-.21q-1.188-1.048-1.984-2.75-.42 1.343-1.296 3.077-.47.875-.703 1.297zm10.094-.25q-.375-.376-2.188-.376 1.188.438 1.937.438.22 0 .28-.016 0-.016-.03-.047z"/></svg>