<svg xmlns="http://www.w3.org/2000/svg" width="28" height="28" viewBox="0 0 28 28"><path fill="#444" d="M22.937 5.938q.438.438.75 1.188T24 8.5v18q0 .626-.438 1.063T22.5 28h-21q-.625 0-1.062-.437T0 26.5v-25Q0 .877.438.44T1.5 0h14q.625 0 1.375.314t1.188.75zM16 2.125V8h5.875q-.156-.453-.344-.64l-4.89-4.892q-.187-.187-.64-.344zM22 26V10h-6.5q-.625 0-1.062-.438T14 8.5V2H2v24h20zM12 12q.812 0 1.406.594T14 14v6q0 .812-.594 1.406T12 22H6q-.812 0-1.406-.594T4 20v-6q0-.812.594-1.406T6 12h6zm7.688.03q.313.126.313.47v9q0 .344-.312.47-.125.03-.187.03-.218 0-.358-.14l-4.14-4.157v-1.406l4.14-4.156q.14-.14.36-.14.062 0 .186.03z"/></svg>