<svg xmlns="http://www.w3.org/2000/svg" width="28" height="28" viewBox="0 0 28 28"><path fill="#444" d="M22.937 5.938q.438.438.75 1.188T24 8.5v18q0 .626-.438 1.063T22.5 28h-21q-.625 0-1.062-.437T0 26.5v-25Q0 .877.438.44T1.5 0h14q.625 0 1.375.314t1.188.75zM16 2.125V8h5.875q-.156-.453-.344-.64l-4.89-4.892q-.187-.187-.64-.344zM22 26V10h-6.5q-.625 0-1.062-.438T14 8.5V2H2v24h20zM6 12.5q0-.22.14-.36T6.5 12h11q.22 0 .36.14t.14.36v1q0 .22-.14.36t-.36.14h-11q-.22 0-.36-.14T6 13.5v-1zM17.5 16q.22 0 .36.14t.14.36v1q0 .22-.14.36t-.36.14h-11q-.22 0-.36-.14T6 17.5v-1q0-.22.14-.36T6.5 16h11zm0 4q.22 0 .36.14t.14.36v1q0 .22-.14.36t-.36.14h-11q-.22 0-.36-.14T6 21.5v-1q0-.22.14-.36T6.5 20h11z"/></svg>