<svg xmlns="http://www.w3.org/2000/svg" width="28" height="28" viewBox="0 0 28 28"><path fill="#444" d="M22.937 5.938q.438.438.75 1.188T24 8.5v18q0 .626-.438 1.063T22.5 28h-21q-.625 0-1.062-.437T0 26.5v-25Q0 .877.438.44T1.5 0h14q.625 0 1.375.314t1.188.75zM16 2.125V8h5.875q-.156-.453-.344-.64l-4.89-4.892q-.187-.187-.64-.344zM22 26V10h-6.5q-.625 0-1.062-.438T14 8.5V2H2v24h20zM6.703 22.344V24h4.39v-1.656h-1.17l1.608-2.516q.08-.11.157-.258t.117-.21.055-.064h.03q.016.063.078.156.03.063.07.117t.094.124.102.133l1.672 2.516h-1.188V24h4.547v-1.657h-1.062l-3-4.266 3.047-4.406h1.047V12h-4.36v1.67h1.157l-1.61 2.485q-.062.11-.155.258t-.142.21l-.03.048h-.032q-.016-.062-.078-.155-.094-.172-.266-.36l-1.656-2.483h1.188V12h-4.53v1.672h1.06l2.954 4.25-3.03 4.422H6.704z"/></svg>