<svg xmlns="http://www.w3.org/2000/svg" width="28" height="28" viewBox="0 0 28 28"><path fill="#444" d="M22.937 5.938q.438.438.75 1.188T24 8.5v18q0 .626-.438 1.063T22.5 28h-21q-.625 0-1.062-.437T0 26.5v-25Q0 .877.438.44T1.5 0h14q.625 0 1.375.314t1.188.75zM16 2.125V8h5.875q-.156-.453-.344-.64l-4.89-4.892q-.187-.187-.64-.344zM22 26V10h-6.5q-.625 0-1.062-.438T14 8.5V2H2v24h20zM6.5 22.344V24h5.11v-1.656h-1.454v-2.61h2.14q1.19 0 1.845-.233 1.048-.358 1.665-1.358t.617-2.28q0-1.267-.578-2.204t-1.563-1.36q-.75-.296-2.03-.296H6.5v1.672h1.437v8.672H6.5zm5.516-4.375h-1.86v-4.19h1.876q.812 0 1.297.282.874.516.874 1.797 0 1.39-.97 1.874-.483.234-1.218.234z"/></svg>